<?xml version="1.0" standalone="no"?><!DOCTYPE svg PUBLIC "-//W3C//DTD SVG 1.1//EN" "http://www.w3.org/Graphics/SVG/1.1/DTD/svg11.dtd"><svg t="1615192998888" class="icon" viewBox="0 0 1024 1024" version="1.1" xmlns="http://www.w3.org/2000/svg" p-id="2010" xmlns:xlink="http://www.w3.org/1999/xlink" width="128" height="128"><defs><style type="text/css"></style></defs><path d="M1024 938.665984C1024 985.812992 985.812992 1024 938.665984 1024H85.334016C38.187008 1024 0 985.812992 0 938.665984V85.334016C0 38.187008 38.187008 0 85.334016 0h853.331968C985.812992 0 1024 38.187008 1024 85.334016v853.331968z" fill="#2192FD" p-id="2011"></path><path d="M199.211008 330.153984h21.745664a39.041024 39.041024 0 0 1 28.891136 12.767232l105.529344 116.068352 105.490432-116.068352a39.041024 39.041024 0 0 1 28.889088-12.767232h21.786624c21.561344 0 39.041024 17.47968 39.041024 39.041024v286.28992a39.041024 39.041024 0 1 1-78.084096 0v-203.79648l-117.12512 128.83968-117.123072-128.83968v203.79648c0 21.563392-17.47968 39.043072-39.041024 39.043072-21.561344 0-39.041024-17.47968-39.041024-39.043072v-286.28992c0-21.561344 17.47968-39.041024 39.041024-39.041024z m526.278656 3.74784h24.399872c21.563392 0 39.041024 17.47968 39.041024 39.041024v153.276416h85.42208l-104.747008 148.201472a39.041024 39.041024 0 0 1-63.7952 0l-104.747008-148.201472h85.42208v-153.276416a39.041024 39.041024 0 0 1 39.043072-39.041024h-0.04096z" fill="#FFFFFF" p-id="2012"></path></svg>